<svg xmlns="http://www.w3.org/2000/svg" width="2500" height="878" viewBox="0 0 24.835 8.726" xmlns:v="https://vecta.io/nano"><path d="M6.006 3.703l-.042.358c-.303 2.081-1.05 4.665-3.479 4.665-2.284 0-2.707-2.181-2.396-4.318C.395 2.315 1.463 0 3.737 0c1.256 0 2.066.861 2.341 2.081l-2.146.816c.028-.335-.1-.861-.471-.861-.967 0-1.167 1.936-1.26 2.573-.057.604-.313 2.081.5 2.081.556 0 .834-.716.896-1.208h-.772l.259-1.778h2.922zM5.708 8.58L6.913.308h1.872L7.58 8.58H5.708zm7.378-2.74c-.224 1.536-1.151 2.854-2.765 2.854S8.164 7.376 8.387 5.84s1.151-2.854 2.765-2.854 2.158 1.318 1.934 2.854zm-2.865 0c-.081.56-.126 1.329.322 1.329s.628-.769.709-1.329.126-1.328-.322-1.328-.627.767-.709 1.328zm6.539-.581c-.159-.094-.363-.197-.497-.197-.697 0-.889.727-.972 1.298l-.323 2.22h-1.872l.798-5.48h1.881l-.258 1.049.016.021c.309-.675.865-1.215 1.558-1.184l-.331 2.273zm.002 3.321l.798-5.48h1.872l-.798 5.48h-1.872zm.896-7.203c.094-.644.659-1.184 1.251-1.184.602 0 1.034.509.937 1.173-.095.654-.652 1.204-1.264 1.204-.601 0-1.021-.529-.924-1.193zm4.354 7.203l-.231-1.297-.54 1.017-.175.28h-2.091l1.939-2.823L19.85 3.1h2.139l.181 1.184h.019l.186-.426.388-.758h2.072l-1.871 2.616L24.18 8.58h-2.168z" fill="#cf4037"/></svg>