<svg xmlns="http://www.w3.org/2000/svg" width="2500" height="2500" viewBox="0 0 192.756 192.756" fill-rule="evenodd" xmlns:v="https://vecta.io/nano"><path opacity="0" d="M0 0h192.756v192.756H0V0z"/><path d="M118.959 133.545h-2.479l-.826-6.938-.99 6.938h-2.312l-1.487-9.912h1.651l1.156 8.26.992-8.26h1.816l1.157 8.26.992-8.26h1.65l-1.32 9.912zm9.91 0h-2.476l-.827-6.938-.992 6.938h-2.476l-1.323-9.912h1.653l.99 8.26 1.156-8.26h1.819l1.154 8.26.992-8.26h1.652l-1.322 9.912zm9.746 0h-2.312l-.992-6.938-.825 6.938h-2.478l-1.322-9.912h1.652l.992 8.26 1.156-8.26h1.817l.99 8.26h.166l.99-8.26h1.653l-1.487 9.912zm1.817 0h1.652v-1.818h-1.652v1.818zm6.443-7.104c0 1.156-.496 1.486-1.156 1.486h-1.156v-2.809h1.156c.66.001 1.156.167 1.156 1.323zm2.146 7.104v-.332c-.496 0-.496-.824-.496-1.65v-1.322c0-.66-.164-1.486-1.156-1.816.662 0 1.322-.826 1.322-2.312 0-1.322-.826-2.479-2.312-2.479h-3.469v9.912h1.652v-4.295h1.32c.66 0 .992.66.992 1.486v1.156c0 .66 0 1.32.33 1.652h1.817zm4.791-2.975c0 .992-.496 1.652-1.156 1.652-.826 0-1.156-.66-1.156-1.652v-3.963c0-1.156.33-1.652 1.156-1.652.66 0 1.156.66 1.156 1.652v3.963zm1.651-.164v-3.635c0-2.477-1.156-3.303-2.807-3.303s-2.975.826-2.975 3.303v3.635c0 2.477 1.322 3.303 2.975 3.303s2.807-.826 2.807-3.303zm5.947 3.139v-1.488h-3.139v-8.424h-1.652v9.912h4.791zm2.643-8.426v2.313h2.808v1.652h-2.808v4.461h-1.817v-9.912h4.791v1.486h-2.974zm3.468 8.426h1.487v-1.818h-1.487v1.818zm6.774 0c-.33-.332-.496-.992-.496-1.652v-1.156c0-.826-.164-1.486-.99-1.486h-1.156v4.295h-1.818v-9.912h3.635c1.322 0 2.146 1.156 2.146 2.479 0 1.486-.494 2.312-1.32 2.312.99.33 1.32 1.156 1.32 1.816v1.322c0 .826 0 1.65.332 1.65v.332h-1.653zm-1.652-8.426h-.99v2.809h1.156c.494 0 1.156-.33 1.156-1.486s-.496-1.323-1.322-1.323zm6.937 8.59c-1.816 0-2.809-.99-2.809-2.809v-7.268h1.818v6.938c0 .992.33 1.652.99 1.652.826 0 1.156-.496 1.156-1.652v-6.938h1.652v7.268c.002 1.653-.825 2.809-2.807 2.809z"/><path d="M189.656 69.784c-55.996-1.322-118.436 7.598-169.312 32.87-.991.496 1.321 7.27 1.817 10.076-1.487.826-3.139 1.652-4.625 2.479s-.166 6.938-.331 9.91l-11.232 6.443c-2.643 1.65-.991 9.746-3.139 11.066 51.868-31.385 111.003-42.617 171.13-41.461 1.32.166 2.477-11.067 3.303-11.067h-.99c1.816 0 3.799 0 5.781-.165.33 0 .99-5.451 1.486-8.92 1.816 0 3.635.165 5.451.165-.495.001 1.653-11.396.661-11.396z" fill="#7e8283"/><path fill="#fff" d="M68.578 99.186h-8.425l3.469-12.058h3.799l-2.808 9.745h4.625l-.66 2.313zm19.326-9.746h-4.956l-.66 2.313h4.625l-.661 2.312h-4.625l-.826 2.808h5.121l-.661 2.313h-8.92l3.304-12.058h8.919l-.66 2.312zm12.719-.165l-.496 5.286H97.98l2.479-5.286h.164zm2.973 9.911V87.128h-4.625l-6.937 12.058h3.799l1.156-2.312h2.974v2.312h3.633zm19.162-8.424h-3.469c.166-.496.166-.826.166-.991 0-.661-.332-.826-.992-.826-.99 0-1.486.661-1.486 1.321 0 .331.164.661.826.991l2.146 1.156c.992.496 1.486 1.156 1.486 2.312 0 1.817-1.156 4.792-5.945 4.792-2.809 0-4.131-.826-4.131-2.479 0-.33 0-.661.33-1.817h3.635c-.33.991-.33 1.156-.33 1.321 0 .662.496.826 1.156.826.826 0 1.652-.66 1.652-1.652 0-.495-.33-.826-1.156-1.156l-1.982-1.156c-.826-.496-1.486-1.321-1.486-2.312 0-2.643 2.643-4.295 5.945-4.295 2.148 0 3.801.661 3.801 2.643 0 .331 0 .661-.166 1.322zm9.58 8.424h-3.799l3.303-12.058h3.801l-3.305 12.058zm18.5 0h-3.799l-1.156-7.432h-.164c-.166 1.321-.166 3.303-.496 4.625l-.826 2.808h-3.633l3.303-12.058h3.799l.992 7.598h.164c.166-1.321.166-3.304.66-4.625l.826-2.973h3.635l-3.305 12.057zm20.484-8.094h-3.635l.33-1.487c0-.165-.164-.661-.99-.661-.992 0-1.488.496-1.652.991l-1.816 6.607c0 .496.33.826 1.156.826.494 0 1.32-.33 1.486-.991l.496-1.487h-1.488l.662-2.147h5.119l-1.816 6.441h-2.643l.166-.99c-.496.826-2.148 1.322-3.801 1.322s-3.139-.662-3.139-2.312c0-.332 0-.827 1.818-6.939.494-2.147 2.477-3.469 5.945-3.469 2.975 0 4.295.826 4.295 2.478.001.166-.163.662-.493 1.818z"/><path d="M45.287 63.672v-6.607h1.982c2.643 0 3.469 1.651 3.469 3.303s-.826 3.304-3.469 3.304h-1.982zm-7.433 15.692h7.433v-9.416l5.781 9.416h9.085L52.72 67.967c2.478-.991 5.616-3.139 5.616-8.589 0-1.322-.331-8.59-9.416-8.59H37.854v28.576zm38.157-6.112c-3.634 0-6.772-2.643-6.772-8.094 0-5.616 3.139-8.259 6.772-8.259 3.469 0 6.607 2.643 6.607 8.259 0 5.451-3.139 8.094-6.607 8.094zm0 6.773c9.746 0 14.371-7.268 14.371-14.866s-4.625-15.032-14.371-15.032c-9.911 0-14.536 7.433-14.536 15.032 0 7.433 4.625 14.866 14.536 14.866zm18.17-29.237h7.434v21.638h8.094v6.938H94.181V50.788zm18.501 0h16.353v6.938h-8.756v4.294h7.93v6.442h-7.93v10.902h-7.597V50.788z" fill="#0c0e0f"/></svg>